<svg xmlns="http://www.w3.org/2000/svg" xml:space="preserve" fill-rule="evenodd" stroke-linejoin="round" stroke-miterlimit="2" clip-rule="evenodd" viewBox="0 0 3000 3000"><path fill="#2d3137" d="M1500 75.221c550.342 0 1162.11 360.847 1076.32 1500.57-23.367 310.46 220.532 733.346 397.691 1036.35 38.958 66.262 33.744 149.549-13.174 210.435-46.917 60.886-147.445 59.942-224.072 53.879-279.008-22.075-346.147-162.002-603.7-161.04-265.396.991-265.229 212.859-625.72 209.323-2.449-.026-12.249-.026-14.698 0-360.491 3.536-360.324-208.332-625.72-209.323-257.553-.962-324.692 138.965-603.7 161.04-76.627 6.063-177.155 7.007-224.072-53.879-46.918-60.886-52.132-144.173-13.174-210.435 177.159-303.004 421.058-725.89 397.691-1036.35-85.781-1139.72 525.982-1500.57 1076.32-1500.57Zm442.674 714.985c-103.647 0-187.796 99.698-187.796 222.498s84.149 222.498 187.796 222.498c103.647 0 187.795-99.698 187.795-222.498s-84.148-222.498-187.795-222.498Zm-885.348 0c-103.647 0-187.795 99.698-187.795 222.498s84.148 222.498 187.795 222.498c103.647 0 187.796-99.698 187.796-222.498s-84.149-222.498-187.796-222.498Z"/><path fill="none" d="M0 0h3000v3000H0z"/></svg>