<svg width="14" height="14" viewBox="0 0 14 14" fill="none" xmlns="http://www.w3.org/2000/svg">
<path fill-rule="evenodd" clip-rule="evenodd" d="M11.1564 0.583984C11.4653 0.583984 11.7742 0.629776 12.0977 0.779818C12.4855 0.961036 12.6901 1.24553 12.8343 1.45598C13.0229 1.7649 13.1224 2.11997 13.1217 2.48191C13.1231 2.83833 13.0332 3.18916 12.8606 3.50102L7.33584 12.9897C7.21433 13.1994 6.99002 13.3281 6.74765 13.3273C6.50528 13.3265 6.28182 13.1963 6.16171 12.9858L0.739259 3.51661L0.734387 3.50882C0.61064 3.30421 0.418687 2.98854 0.384583 2.58031C0.321819 1.8116 0.7428 1.08466 1.44082 0.756435C1.80718 0.585933 2.17843 0.583984 2.41228 0.583984H11.1564ZM6.07206 1.94021H2.41228C2.1716 1.94021 2.07904 1.95482 2.01473 1.98502C1.82869 2.07117 1.71707 2.26513 1.73605 2.46925C1.74092 2.52771 1.76431 2.59298 1.90267 2.82097L1.91144 2.83558L6.07206 10.1009V1.94021ZM7.42841 10.1369L11.6865 2.82389C11.7401 2.71795 11.7675 2.60066 11.7664 2.48191C11.7664 2.37766 11.7449 2.28705 11.6962 2.19352C11.6642 2.14461 11.6284 2.09834 11.589 2.05517C11.5709 2.03543 11.5491 2.01952 11.5247 2.0084C11.4089 1.95727 11.2828 1.93391 11.1564 1.9402H7.42841V10.1369Z" fill="white"/>
</svg>
