<svg width="14" height="11" viewBox="0 0 14 11" fill="none" xmlns="http://www.w3.org/2000/svg">
<path fill-rule="evenodd" clip-rule="evenodd" d="M7.01158 5.71755C8.61045 5.71755 9.94667 5.44962 10.2732 5.09162C9.99594 4.78798 8.99302 4.54885 7.71932 4.48342V5.23975C7.49131 5.2515 7.25424 5.25726 7.01135 5.25726C6.76846 5.25726 6.53139 5.2515 6.30291 5.23975V4.48342C5.02968 4.54885 4.02629 4.78798 3.74901 5.09162C4.07603 5.44962 5.41249 5.71755 7.01135 5.71755H7.01158ZM9.8523 2.15755V3.19908H7.71932V3.92131C9.21755 3.99848 10.3418 4.31594 10.3502 4.69583V5.48786C10.3418 5.86775 9.21755 6.18452 7.71932 6.26192V8.03443H6.30315V6.26192C4.80492 6.18475 3.68114 5.86775 3.67277 5.48786V4.69583C3.68114 4.31594 4.80492 3.99848 6.30315 3.92131V3.19908H4.17016V2.15755H9.85254H9.8523ZM3.33134 0.5H10.8192C10.9982 0.5 11.163 0.593302 11.2522 0.744889L13.4335 4.45762C13.5465 4.65022 13.513 4.89326 13.3517 5.04923L7.34721 10.8588C7.15243 11.0471 6.83959 11.0471 6.64528 10.8588L0.6482 5.05706C0.48341 4.89718 0.452264 4.64722 0.573824 4.45371L2.90576 0.733371C2.99664 0.588695 3.15795 0.50023 3.33157 0.50023L3.33134 0.5Z" fill="white"/>
</svg>
