<svg width="291" height="127" viewBox="0 0 291 127" fill="none" xmlns="http://www.w3.org/2000/svg">
<path d="M80.5 11C80.2401 11 80.0331 10.8123 79.9801 10.5331C79.4845 7.32814 79.0853 6.948 75.9813 6.5197C75.702 6.48118 75.5 6.26945 75.5 5.99998C75.5 5.73047 75.707 5.50913 75.9862 5.47542C79.0948 5.12895 79.5375 4.67658 79.9801 1.46678C80.0237 1.19247 80.2351 1 80.5 1C80.7599 1 80.9714 1.19247 81.0149 1.46678C81.5012 4.67658 81.9196 5.09043 85.0187 5.47542C85.293 5.51394 85.5 5.73047 85.5 5.99998C85.5 6.26945 85.293 6.48602 85.0138 6.5197C81.9052 6.87101 81.4576 7.32334 81.0149 10.5331C80.9763 10.8074 80.7649 11 80.5 11Z" fill="#FEBF05"/>
<path d="M79.5 37C79.2401 37 79.0331 36.8123 78.9801 36.5331C78.4845 33.3281 78.0853 32.948 74.9813 32.5197C74.702 32.4812 74.5 32.2694 74.5 32C74.5 31.7305 74.707 31.5091 74.9862 31.4754C78.0948 31.129 78.5375 30.6766 78.9801 27.4668C79.0237 27.1925 79.2351 27 79.5 27C79.7599 27 79.9714 27.1925 80.0149 27.4668C80.5012 30.6766 80.9196 31.0904 84.0187 31.4754C84.293 31.5139 84.5 31.7305 84.5 32C84.5 32.2694 84.293 32.486 84.0138 32.5197C80.9052 32.871 80.4576 33.3233 80.0149 36.5331C79.9763 36.8074 79.7649 37 79.5 37Z" fill="#FECC13"/>
<path d="M33.5 72C33.2401 72 33.0331 71.8123 32.9801 71.5331C32.4845 68.3281 32.0853 67.948 28.9813 67.5197C28.702 67.4812 28.5 67.2694 28.5 67C28.5 66.7305 28.707 66.5091 28.9862 66.4754C32.0948 66.129 32.5375 65.6766 32.9801 62.4668C33.0237 62.1925 33.2351 62 33.5 62C33.7599 62 33.9714 62.1925 34.0149 62.4668C34.5012 65.6766 34.9196 66.0904 38.0187 66.4754C38.293 66.5139 38.5 66.7305 38.5 67C38.5 67.2694 38.293 67.486 38.0138 67.5197C34.9052 67.871 34.4576 68.3233 34.0149 71.5331C33.9763 71.8074 33.7649 72 33.5 72Z" fill="#FECC13"/>
<path d="M50.5 54C50.2401 54 50.0331 53.8123 49.9801 53.5331C49.4845 50.3281 49.0853 49.948 45.9813 49.5197C45.702 49.4812 45.5 49.2694 45.5 49C45.5 48.7305 45.707 48.5091 45.9862 48.4754C49.0948 48.129 49.5375 47.6766 49.9801 44.4668C50.0237 44.1925 50.2351 44 50.5 44C50.7599 44 50.9714 44.1925 51.0149 44.4668C51.5012 47.6766 51.9196 48.0904 55.0187 48.4754C55.293 48.5139 55.5 48.7305 55.5 49C55.5 49.2694 55.293 49.486 55.0138 49.5197C51.9052 49.871 51.4576 50.3233 51.0149 53.5331C50.9763 53.8074 50.7649 54 50.5 54Z" fill="#FF9044"/>
<path d="M73.5 112C73.2401 112 73.0331 111.812 72.9801 111.533C72.4845 108.328 72.0853 107.948 68.9813 107.52C68.702 107.481 68.5 107.269 68.5 107C68.5 106.73 68.707 106.509 68.9862 106.475C72.0948 106.129 72.5375 105.677 72.9801 102.467C73.0237 102.192 73.2351 102 73.5 102C73.7599 102 73.9714 102.192 74.0149 102.467C74.5012 105.677 74.9196 106.09 78.0187 106.475C78.293 106.514 78.5 106.73 78.5 107C78.5 107.269 78.293 107.486 78.0138 107.52C74.9052 107.871 74.4576 108.323 74.0149 111.533C73.9763 111.807 73.7649 112 73.5 112Z" fill="#FECC13"/>
<path d="M8.5 127C8.24006 127 8.0331 126.812 7.98012 126.533C7.48448 123.328 7.08533 122.948 3.98127 122.52C3.70204 122.481 3.5 122.269 3.5 122C3.5 121.73 3.70696 121.509 3.9862 121.475C7.09478 121.129 7.53745 120.677 7.98012 117.467C8.02365 117.192 8.23513 117 8.5 117C8.75994 117 8.97142 117.192 9.01495 117.467C9.50115 120.677 9.9196 121.09 13.0187 121.475C13.293 121.514 13.5 121.73 13.5 122C13.5 122.269 13.293 122.486 13.0138 122.52C9.90522 122.871 9.45762 123.323 9.01495 126.533C8.97635 126.807 8.76487 127 8.5 127Z" fill="#FECC13"/>
<path d="M51.5 92C51.344 92 51.2199 91.8874 51.1881 91.7199C50.8907 89.7969 50.6512 89.5688 48.7888 89.3118C48.6212 89.2887 48.5 89.1617 48.5 89C48.5 88.8383 48.6242 88.7055 48.7917 88.6853C50.6569 88.4774 50.9225 88.2059 51.1881 86.2801C51.2142 86.1155 51.3411 86 51.5 86C51.656 86 51.7829 86.1155 51.809 86.2801C52.1007 88.2059 52.3518 88.4543 54.2112 88.6853C54.3758 88.7084 54.5 88.8383 54.5 89C54.5 89.1617 54.3758 89.2916 54.2083 89.3118C52.3431 89.5226 52.0746 89.794 51.809 91.7199C51.7858 91.8844 51.6589 92 51.5 92Z" fill="#FEBF05"/>
<path d="M69.5 47C69.344 47 69.2199 46.8874 69.1881 46.7199C68.8907 44.7969 68.6512 44.5688 66.7888 44.3118C66.6212 44.2887 66.5 44.1617 66.5 44C66.5 43.8383 66.6242 43.7055 66.7917 43.6853C68.6569 43.4774 68.9225 43.2059 69.1881 41.2801C69.2142 41.1155 69.3411 41 69.5 41C69.656 41 69.7829 41.1155 69.809 41.2801C70.1007 43.2059 70.3518 43.4543 72.2112 43.6853C72.3758 43.7084 72.5 43.8383 72.5 44C72.5 44.1617 72.3758 44.2916 72.2083 44.3118C70.3431 44.5226 70.0746 44.794 69.809 46.7199C69.7858 46.8844 69.6589 47 69.5 47Z" fill="#FECC13"/>
<path d="M34.5 25C34.344 25 34.2199 24.8874 34.1881 24.7199C33.8907 22.7969 33.6512 22.5688 31.7888 22.3118C31.6212 22.2887 31.5 22.1617 31.5 22C31.5 21.8383 31.6242 21.7055 31.7917 21.6853C33.6569 21.4774 33.9225 21.2059 34.1881 19.2801C34.2142 19.1155 34.3411 19 34.5 19C34.656 19 34.7829 19.1155 34.809 19.2801C35.1007 21.2059 35.3518 21.4543 37.2112 21.6853C37.3758 21.7084 37.5 21.8383 37.5 22C37.5 22.1617 37.3758 22.2916 37.2083 22.3118C35.3431 22.5226 35.0746 22.794 34.809 24.7199C34.7858 24.8844 34.6589 25 34.5 25Z" fill="#FF9044"/>
<path d="M3.5 74C3.34404 74 3.21986 73.8874 3.18807 73.7199C2.89069 71.7969 2.6512 71.5688 0.788765 71.3118C0.621222 71.2887 0.5 71.1617 0.5 71C0.5 70.8383 0.624179 70.7055 0.791721 70.6853C2.65687 70.4774 2.92247 70.2059 3.18807 68.2801C3.21419 68.1155 3.34108 68 3.5 68C3.65596 68 3.78285 68.1155 3.80897 68.2801C4.10069 70.2059 4.35176 70.4543 6.21124 70.6853C6.37582 70.7084 6.5 70.8383 6.5 71C6.5 71.1617 6.37582 71.2916 6.20828 71.3118C4.34313 71.5226 4.07457 71.794 3.80897 73.7199C3.78581 73.8844 3.65892 74 3.5 74Z" fill="#FEBF05"/>
<path d="M13.5 106C13.396 106 13.3132 105.925 13.292 105.813C13.0938 104.531 12.9341 104.379 11.6925 104.208C11.5808 104.192 11.5 104.108 11.5 104C11.5 103.892 11.5828 103.804 11.6945 103.79C12.9379 103.652 13.115 103.471 13.292 102.187C13.3095 102.077 13.3941 102 13.5 102C13.604 102 13.6886 102.077 13.706 102.187C13.9005 103.471 14.0678 103.636 15.3075 103.79C15.4172 103.806 15.5 103.892 15.5 104C15.5 104.108 15.4172 104.194 15.3055 104.208C14.0621 104.348 13.883 104.529 13.706 105.813C13.6905 105.923 13.6059 106 13.5 106Z" fill="#FEBF05"/>
<path d="M70.5 73C70.396 73 70.3132 72.9249 70.292 72.8132C70.0938 71.5313 69.9341 71.3792 68.6925 71.2079C68.5808 71.1925 68.5 71.1078 68.5 71C68.5 70.8922 68.5828 70.8037 68.6945 70.7902C69.9379 70.6516 70.115 70.4706 70.292 69.1867C70.3095 69.077 70.3941 69 70.5 69C70.604 69 70.6886 69.077 70.706 69.1867C70.9005 70.4706 71.0678 70.6362 72.3075 70.7902C72.4172 70.8056 72.5 70.8922 72.5 71C72.5 71.1078 72.4172 71.1944 72.3055 71.2079C71.0621 71.3484 70.883 71.5293 70.706 72.8132C70.6905 72.923 70.6059 73 70.5 73Z" fill="#FF9044"/>
<path d="M90.5 28C90.396 28 90.3132 27.9249 90.292 27.8132C90.0938 26.5313 89.9341 26.3792 88.6925 26.2079C88.5808 26.1925 88.5 26.1078 88.5 26C88.5 25.8922 88.5828 25.8037 88.6945 25.7902C89.9379 25.6516 90.115 25.4706 90.292 24.1867C90.3095 24.077 90.3941 24 90.5 24C90.604 24 90.6886 24.077 90.706 24.1867C90.9005 25.4706 91.0678 25.6362 92.3075 25.7902C92.4172 25.8056 92.5 25.8922 92.5 26C92.5 26.1078 92.4172 26.1944 92.3055 26.2079C91.0621 26.3484 90.883 26.5293 90.706 27.8132C90.6905 27.923 90.6059 28 90.5 28Z" fill="#FF9044"/>
<path d="M65.5 13C65.396 13 65.3132 12.9249 65.292 12.8132C65.0938 11.5313 64.9341 11.3792 63.6925 11.2079C63.5808 11.1925 63.5 11.1078 63.5 11C63.5 10.8922 63.5828 10.8037 63.6945 10.7902C64.9379 10.6516 65.115 10.4706 65.292 9.18671C65.3095 9.07699 65.3941 9 65.5 9C65.604 9 65.6886 9.07699 65.706 9.18671C65.9005 10.4706 66.0678 10.6362 67.3075 10.7902C67.4172 10.8056 67.5 10.8922 67.5 11C67.5 11.1078 67.4172 11.1944 67.3055 11.2079C66.0621 11.3484 65.883 11.5293 65.706 12.8132C65.6905 12.923 65.6059 13 65.5 13Z" fill="#FF9044"/>
<path d="M21.5 119C21.344 119 21.2199 118.887 21.1881 118.72C20.8907 116.797 20.6512 116.569 18.7888 116.312C18.6212 116.289 18.5 116.162 18.5 116C18.5 115.838 18.6242 115.705 18.7917 115.685C20.6569 115.477 20.9225 115.206 21.1881 113.28C21.2142 113.115 21.3411 113 21.5 113C21.656 113 21.7829 113.115 21.809 113.28C22.1007 115.206 22.3518 115.454 24.2112 115.685C24.3758 115.708 24.5 115.838 24.5 116C24.5 116.162 24.3758 116.292 24.2083 116.312C22.3431 116.523 22.0746 116.794 21.809 118.72C21.7858 118.884 21.6589 119 21.5 119Z" fill="#FEBF05"/>
<path d="M47.5 100C47.344 100 47.2199 99.8874 47.1881 99.7199C46.8907 97.7969 46.6512 97.5688 44.7888 97.3118C44.6212 97.2887 44.5 97.1617 44.5 97C44.5 96.8383 44.6242 96.7055 44.7917 96.6853C46.6569 96.4774 46.9225 96.2059 47.1881 94.2801C47.2142 94.1155 47.3411 94 47.5 94C47.656 94 47.7829 94.1155 47.809 94.2801C48.1007 96.2059 48.3518 96.4543 50.2112 96.6853C50.3758 96.7084 50.5 96.8383 50.5 97C50.5 97.1617 50.3758 97.2916 50.2083 97.3118C48.3431 97.5226 48.0746 97.794 47.809 99.7199C47.7858 99.8844 47.6589 100 47.5 100Z" fill="#FF9044"/>
<path d="M117.5 17C117.344 17 117.22 16.8874 117.188 16.7199C116.891 14.7969 116.651 14.5688 114.789 14.3118C114.621 14.2887 114.5 14.1617 114.5 14C114.5 13.8383 114.624 13.7055 114.792 13.6853C116.657 13.4774 116.922 13.2059 117.188 11.2801C117.214 11.1155 117.341 11 117.5 11C117.656 11 117.783 11.1155 117.809 11.2801C118.101 13.2059 118.352 13.4543 120.211 13.6853C120.376 13.7084 120.5 13.8383 120.5 14C120.5 14.1617 120.376 14.2916 120.208 14.3118C118.343 14.5226 118.075 14.794 117.809 16.7199C117.786 16.8844 117.659 17 117.5 17Z" fill="#FF9044"/>
<path d="M129.5 6C129.344 6 129.22 5.8874 129.188 5.71986C128.891 3.79689 128.651 3.5688 126.789 3.31182C126.621 3.28871 126.5 3.16167 126.5 2.99999C126.5 2.83828 126.624 2.70548 126.792 2.68525C128.657 2.47737 128.922 2.20595 129.188 0.280071C129.214 0.115483 129.341 0 129.5 0C129.656 0 129.783 0.115483 129.809 0.280071C130.101 2.20595 130.352 2.45426 132.211 2.68525C132.376 2.70836 132.5 2.83828 132.5 2.99999C132.5 3.16167 132.376 3.29161 132.208 3.31182C130.343 3.5226 130.075 3.794 129.809 5.71986C129.786 5.88444 129.659 6 129.5 6Z" fill="#FECC13"/>
<path d="M22.5 82C22.344 82 22.2199 81.8874 22.1881 81.7199C21.8907 79.7969 21.6512 79.5688 19.7888 79.3118C19.6212 79.2887 19.5 79.1617 19.5 79C19.5 78.8383 19.6242 78.7055 19.7917 78.6853C21.6569 78.4774 21.9225 78.2059 22.1881 76.2801C22.2142 76.1155 22.3411 76 22.5 76C22.656 76 22.7829 76.1155 22.809 76.2801C23.1007 78.2059 23.3518 78.4543 25.2112 78.6853C25.3758 78.7084 25.5 78.8383 25.5 79C25.5 79.1617 25.3758 79.2916 25.2083 79.3118C23.3431 79.5226 23.0746 79.794 22.809 81.7199C22.7858 81.8844 22.6589 82 22.5 82Z" fill="#FF9044"/>
<path d="M250 60C249.74 60 249.533 59.8123 249.48 59.5331C248.984 56.3281 248.585 55.948 245.481 55.5197C245.202 55.4812 245 55.2694 245 55C245 54.7305 245.207 54.5091 245.486 54.4754C248.595 54.129 249.037 53.6766 249.48 50.4668C249.524 50.1925 249.735 50 250 50C250.26 50 250.471 50.1925 250.515 50.4668C251.001 53.6766 251.42 54.0904 254.519 54.4754C254.793 54.5139 255 54.7305 255 55C255 55.2694 254.793 55.486 254.514 55.5197C251.405 55.871 250.958 56.3233 250.515 59.5331C250.476 59.8074 250.265 60 250 60Z" fill="#FECC13"/>
<path d="M274.5 39C274.24 39 274.033 38.8123 273.98 38.5331C273.484 35.3281 273.085 34.948 269.981 34.5197C269.702 34.4812 269.5 34.2694 269.5 34C269.5 33.7305 269.707 33.5091 269.986 33.4754C273.095 33.129 273.537 32.6766 273.98 29.4668C274.024 29.1925 274.235 29 274.5 29C274.76 29 274.971 29.1925 275.015 29.4668C275.501 32.6766 275.92 33.0904 279.019 33.4754C279.293 33.5139 279.5 33.7305 279.5 34C279.5 34.2694 279.293 34.486 279.014 34.5197C275.905 34.871 275.458 35.3233 275.015 38.5331C274.976 38.8074 274.765 39 274.5 39Z" fill="#FECC13"/>
<path d="M233.5 25C233.24 25 233.033 24.8123 232.98 24.5331C232.484 21.3281 232.085 20.948 228.981 20.5197C228.702 20.4812 228.5 20.2694 228.5 20C228.5 19.7305 228.707 19.5091 228.986 19.4754C232.095 19.129 232.537 18.6766 232.98 15.4668C233.024 15.1925 233.235 15 233.5 15C233.76 15 233.971 15.1925 234.015 15.4668C234.501 18.6766 234.92 19.0904 238.019 19.4754C238.293 19.5139 238.5 19.7305 238.5 20C238.5 20.2694 238.293 20.486 238.014 20.5197C234.905 20.871 234.458 21.3233 234.015 24.5331C233.976 24.8074 233.765 25 233.5 25Z" fill="#FECC13"/>
<path d="M188.5 28C188.24 28 188.033 27.8123 187.98 27.5331C187.484 24.3281 187.085 23.948 183.981 23.5197C183.702 23.4812 183.5 23.2694 183.5 23C183.5 22.7305 183.707 22.5091 183.986 22.4754C187.095 22.129 187.537 21.6766 187.98 18.4668C188.024 18.1925 188.235 18 188.5 18C188.76 18 188.971 18.1925 189.015 18.4668C189.501 21.6766 189.92 22.0904 193.019 22.4754C193.293 22.5139 193.5 22.7305 193.5 23C193.5 23.2694 193.293 23.486 193.014 23.5197C189.905 23.871 189.458 24.3233 189.015 27.5331C188.976 27.8074 188.765 28 188.5 28Z" fill="#FECC13"/>
<path d="M166 12C165.74 12 165.533 11.8123 165.48 11.5331C164.984 8.32814 164.585 7.948 161.481 7.5197C161.202 7.48118 161 7.26945 161 6.99998C161 6.73047 161.207 6.50913 161.486 6.47542C164.595 6.12895 165.037 5.67658 165.48 2.46678C165.524 2.19247 165.735 2 166 2C166.26 2 166.471 2.19247 166.515 2.46678C167.001 5.67658 167.42 6.09043 170.519 6.47542C170.793 6.51394 171 6.73047 171 6.99998C171 7.26945 170.793 7.48602 170.514 7.5197C167.405 7.87101 166.958 8.32334 166.515 11.5331C166.476 11.8074 166.265 12 166 12Z" fill="#FEBF05"/>
<path d="M255.5 19C255.24 19 255.033 18.8123 254.98 18.5331C254.484 15.3281 254.085 14.948 250.981 14.5197C250.702 14.4812 250.5 14.2694 250.5 14C250.5 13.7305 250.707 13.5091 250.986 13.4754C254.095 13.129 254.537 12.6766 254.98 9.46678C255.024 9.19247 255.235 9 255.5 9C255.76 9 255.971 9.19247 256.015 9.46678C256.501 12.6766 256.92 13.0904 260.019 13.4754C260.293 13.5139 260.5 13.7305 260.5 14C260.5 14.2694 260.293 14.486 260.014 14.5197C256.905 14.871 256.458 15.3233 256.015 18.5331C255.976 18.8074 255.765 19 255.5 19Z" fill="#FECC13"/>
<path d="M269.5 58C269.24 58 269.033 57.8123 268.98 57.5331C268.484 54.3281 268.085 53.948 264.981 53.5197C264.702 53.4812 264.5 53.2694 264.5 53C264.5 52.7305 264.707 52.5091 264.986 52.4754C268.095 52.129 268.537 51.6766 268.98 48.4668C269.024 48.1925 269.235 48 269.5 48C269.76 48 269.971 48.1925 270.015 48.4668C270.501 51.6766 270.92 52.0904 274.019 52.4754C274.293 52.5139 274.5 52.7305 274.5 53C274.5 53.2694 274.293 53.486 274.014 53.5197C270.905 53.871 270.458 54.3233 270.015 57.5331C269.976 57.8074 269.765 58 269.5 58Z" fill="#FECC13"/>
<path d="M255 43C254.844 43 254.72 42.8874 254.688 42.7199C254.391 40.7969 254.151 40.5688 252.289 40.3118C252.121 40.2887 252 40.1617 252 40C252 39.8383 252.124 39.7055 252.292 39.6853C254.157 39.4774 254.422 39.2059 254.688 37.2801C254.714 37.1155 254.841 37 255 37C255.156 37 255.283 37.1155 255.309 37.2801C255.601 39.2059 255.852 39.4543 257.711 39.6853C257.876 39.7084 258 39.8383 258 40C258 40.1617 257.876 40.2916 257.708 40.3118C255.843 40.5226 255.575 40.794 255.309 42.7199C255.286 42.8844 255.159 43 255 43Z" fill="#FEBF05"/>
<path d="M252 124C251.844 124 251.72 123.887 251.688 123.72C251.391 121.797 251.151 121.569 249.289 121.312C249.121 121.289 249 121.162 249 121C249 120.838 249.124 120.705 249.292 120.685C251.157 120.477 251.422 120.206 251.688 118.28C251.714 118.115 251.841 118 252 118C252.156 118 252.283 118.115 252.309 118.28C252.601 120.206 252.852 120.454 254.711 120.685C254.876 120.708 255 120.838 255 121C255 121.162 254.876 121.292 254.708 121.312C252.843 121.523 252.575 121.794 252.309 123.72C252.286 123.884 252.159 124 252 124Z" fill="#FECC13"/>
<path d="M229.5 77C229.344 77 229.22 76.8874 229.188 76.7199C228.891 74.7969 228.651 74.5688 226.789 74.3118C226.621 74.2887 226.5 74.1617 226.5 74C226.5 73.8383 226.624 73.7055 226.792 73.6853C228.657 73.4774 228.922 73.2059 229.188 71.2801C229.214 71.1155 229.341 71 229.5 71C229.656 71 229.783 71.1155 229.809 71.2801C230.101 73.2059 230.352 73.4543 232.211 73.6853C232.376 73.7084 232.5 73.8383 232.5 74C232.5 74.1617 232.376 74.2916 232.208 74.3118C230.343 74.5226 230.075 74.794 229.809 76.7199C229.786 76.8844 229.659 77 229.5 77Z" fill="#FEBF05"/>
<path d="M208 51C207.844 51 207.72 50.8874 207.688 50.7199C207.391 48.7969 207.151 48.5688 205.289 48.3118C205.121 48.2887 205 48.1617 205 48C205 47.8383 205.124 47.7055 205.292 47.6853C207.157 47.4774 207.422 47.2059 207.688 45.2801C207.714 45.1155 207.841 45 208 45C208.156 45 208.283 45.1155 208.309 45.2801C208.601 47.2059 208.852 47.4543 210.711 47.6853C210.876 47.7084 211 47.8383 211 48C211 48.1617 210.876 48.2916 210.708 48.3118C208.843 48.5226 208.575 48.794 208.309 50.7199C208.286 50.8844 208.159 51 208 51Z" fill="#FF9044"/>
<path d="M220 28C219.844 28 219.72 27.8874 219.688 27.7199C219.391 25.7969 219.151 25.5688 217.289 25.3118C217.121 25.2887 217 25.1617 217 25C217 24.8383 217.124 24.7055 217.292 24.6853C219.157 24.4774 219.422 24.2059 219.688 22.2801C219.714 22.1155 219.841 22 220 22C220.156 22 220.283 22.1155 220.309 22.2801C220.601 24.2059 220.852 24.4543 222.711 24.6853C222.876 24.7084 223 24.8383 223 25C223 25.1617 222.876 25.2916 222.708 25.3118C220.843 25.5226 220.575 25.794 220.309 27.7199C220.286 27.8844 220.159 28 220 28Z" fill="#FF9044"/>
<path d="M202 9C201.844 9 201.72 8.8874 201.688 8.71986C201.391 6.79689 201.151 6.5688 199.289 6.31182C199.121 6.28871 199 6.16167 199 5.99999C199 5.83828 199.124 5.70548 199.292 5.68525C201.157 5.47737 201.422 5.20595 201.688 3.28007C201.714 3.11548 201.841 3 202 3C202.156 3 202.283 3.11548 202.309 3.28007C202.601 5.20595 202.852 5.45426 204.711 5.68525C204.876 5.70836 205 5.83828 205 5.99999C205 6.16167 204.876 6.29161 204.708 6.31182C202.843 6.5226 202.575 6.794 202.309 8.71986C202.286 8.88444 202.159 9 202 9Z" fill="#FECC13"/>
<path d="M265 83C264.844 83 264.72 82.8874 264.688 82.7199C264.391 80.7969 264.151 80.5688 262.289 80.3118C262.121 80.2887 262 80.1617 262 80C262 79.8383 262.124 79.7055 262.292 79.6853C264.157 79.4774 264.422 79.2059 264.688 77.2801C264.714 77.1155 264.841 77 265 77C265.156 77 265.283 77.1155 265.309 77.2801C265.601 79.2059 265.852 79.4543 267.711 79.6853C267.876 79.7084 268 79.8383 268 80C268 80.1617 267.876 80.2916 267.708 80.3118C265.843 80.5226 265.575 80.794 265.309 82.7199C265.286 82.8844 265.159 83 265 83Z" fill="#FEBF05"/>
<path d="M223 55C222.74 55 222.533 54.8123 222.48 54.5331C221.984 51.3281 221.585 50.948 218.481 50.5197C218.202 50.4812 218 50.2694 218 50C218 49.7305 218.207 49.5091 218.486 49.4754C221.595 49.129 222.037 48.6766 222.48 45.4668C222.524 45.1925 222.735 45 223 45C223.26 45 223.471 45.1925 223.515 45.4668C224.001 48.6766 224.42 49.0904 227.519 49.4754C227.793 49.5139 228 49.7305 228 50C228 50.2694 227.793 50.486 227.514 50.5197C224.405 50.871 223.958 51.3233 223.515 54.5331C223.476 54.8074 223.265 55 223 55Z" fill="#FECC13"/>
<path d="M224.5 103C224.24 103 224.033 102.812 223.98 102.533C223.484 99.3281 223.085 98.948 219.981 98.5197C219.702 98.4812 219.5 98.2694 219.5 98C219.5 97.7305 219.707 97.5091 219.986 97.4754C223.095 97.129 223.537 96.6766 223.98 93.4668C224.024 93.1925 224.235 93 224.5 93C224.76 93 224.971 93.1925 225.015 93.4668C225.501 96.6766 225.92 97.0904 229.019 97.4754C229.293 97.5139 229.5 97.7305 229.5 98C229.5 98.2694 229.293 98.486 229.014 98.5197C225.905 98.871 225.458 99.3233 225.015 102.533C224.976 102.807 224.765 103 224.5 103Z" fill="#FECC13"/>
<path d="M234.5 95C234.292 95 234.126 94.8499 234.084 94.6265C233.688 92.0625 233.368 91.7584 230.885 91.4158C230.662 91.3849 230.5 91.2156 230.5 91C230.5 90.7844 230.666 90.6073 230.889 90.5803C233.376 90.3032 233.73 89.9413 234.084 87.3734C234.119 87.154 234.288 87 234.5 87C234.708 87 234.877 87.154 234.912 87.3734C235.301 89.9413 235.636 90.2723 238.115 90.5803C238.334 90.6111 238.5 90.7844 238.5 91C238.5 91.2156 238.334 91.3888 238.111 91.4158C235.624 91.6968 235.266 92.0587 234.912 94.6265C234.881 94.8459 234.712 95 234.5 95Z" fill="#FF9044"/>
<path d="M286.5 113C286.292 113 286.126 112.85 286.084 112.626C285.688 110.063 285.368 109.758 282.885 109.416C282.662 109.385 282.5 109.216 282.5 109C282.5 108.784 282.666 108.607 282.889 108.58C285.376 108.303 285.73 107.941 286.084 105.373C286.119 105.154 286.288 105 286.5 105C286.708 105 286.877 105.154 286.912 105.373C287.301 107.941 287.636 108.272 290.115 108.58C290.334 108.611 290.5 108.784 290.5 109C290.5 109.216 290.334 109.389 290.111 109.416C287.624 109.697 287.266 110.059 286.912 112.626C286.881 112.846 286.712 113 286.5 113Z" fill="#FF9044"/>
</svg>
